<svg xmlns="http://www.w3.org/2000/svg" width="25.969" height="26" viewBox="0 0 25.969 26">
  <metadata><?xpacket begin="﻿" id="W5M0MpCehiHzreSzNTczkc9d"?>
<x:xmpmeta xmlns:x="adobe:ns:meta/" x:xmptk="Adobe XMP Core 5.6-c138 79.159824, 2016/09/14-01:09:01        ">
   <rdf:RDF xmlns:rdf="http://www.w3.org/1999/02/22-rdf-syntax-ns#">
      <rdf:Description rdf:about=""/>
   </rdf:RDF>
</x:xmpmeta>                        
<?xpacket end="w"?></metadata>
<defs>
    <style>
      .cls-1 {
        fill: #000;
        fill-rule: evenodd;
      }
    </style>
  </defs>
  <path id="Shape_1_copy" data-name="Shape 1 copy" class="cls-1" d="M695.826,3991.12c-3.138,0-6.276.01-9.415-.01a3.441,3.441,0,0,1-3.209-1.97,3.158,3.158,0,0,1-.37-1.52q0-9.495,0-18.98a3.551,3.551,0,0,1,2.972-3.45,4.025,4.025,0,0,1,.6-0.05h18.842a3.563,3.563,0,0,1,3.543,3.06,3.274,3.274,0,0,1,.032.5q0,9.435,0,18.86a3.57,3.57,0,0,1-3.061,3.53,4.909,4.909,0,0,1-.542.03h-9.392Zm-6.692-15.35h-0.053c-1.264,0-2.528,0-3.792-.01-0.11,0-.1.06-0.1,0.13v11.63a1.458,1.458,0,0,0,.037.34,1.16,1.16,0,0,0,1.2.9h18.8a1.206,1.206,0,0,0,.327-0.04,1.15,1.15,0,0,0,.907-1.19q0-5.82,0-11.64c0-.1-0.026-0.13-0.123-0.13-1.236.01-2.473,0.01-3.709,0.01h-0.117a7.1,7.1,0,0,1,.361,3.13,7.072,7.072,0,0,1-3.248,5.2A7.086,7.086,0,0,1,689.134,3975.77Zm1.966,2.35a4.726,4.726,0,1,0,4.734-4.71A4.712,4.712,0,0,0,691.1,3978.12Zm10.633-7.67c0,0.55,0,1.11,0,1.67,0,0.08.019,0.11,0.1,0.11q1.673-.015,3.343,0c0.085,0,.1-0.03.1-0.11q0-1.665,0-3.33a0.089,0.089,0,0,0-.11-0.11h-3.331a0.088,0.088,0,0,0-.108.11C701.735,3969.34,701.733,3969.89,701.733,3970.45Z" transform="translate(-682.844 -3965.13)"/>
</svg>
