<?xml version="1.0" encoding="UTF-8"?><!DOCTYPE svg PUBLIC "-//W3C//DTD SVG 1.1//EN" "http://www.w3.org/Graphics/SVG/1.1/DTD/svg11.dtd"><svg xmlns="http://www.w3.org/2000/svg"><defs>
        <style>
            .cls-1{fill:#6d6d6d}
        </style>
    </defs><symbol id="icon-arrow-right" viewBox="0 0 26.94 51.03">
    
    <title>
        Asset 3
    </title>
    <g id="Layer_2" data-name="Layer 2">
        <g id="Layer_1-2" data-name="Layer 1">
            <path id="Shape_6_copy_2" data-name="Shape 6 copy 2" class="cls-1" d="M.47 50.48l.1.09a1.63 1.63 0 0 0 2.28 0l24.09-23.89C27.18 26.44 8.12 5.81 3.22.51A1.62 1.62 0 0 0 .92.44L.8.56a1.57 1.57 0 0 0 0 2.19c4.4 4.82 21.75 23.59 21.51 23.84L.47 48.23a1.58 1.58 0 0 0 0 2.23z"/>
        </g>
    </g>
</symbol><symbol id="icon-instagram" viewBox="0 0 20 20">
    <title>
        instagram
    </title>
    <path d="M17 1H3c-1.1 0-2 .9-2 2v14c0 1.101.9 2 2 2h14c1.1 0 2-.899 2-2V3c0-1.1-.9-2-2-2zM9.984 15.523a5.539 5.539 0 0 0 5.538-5.539c0-.338-.043-.664-.103-.984H17v7.216a.69.69 0 0 1-.693.69H3.693a.69.69 0 0 1-.693-.69V9h1.549c-.061.32-.104.646-.104.984a5.54 5.54 0 0 0 5.539 5.539zM6.523 9.984c0-1.912 1.55-3.461 3.462-3.461a3.461 3.461 0 1 1 0 6.923 3.461 3.461 0 0 1-3.462-3.462zM16.307 6h-1.615A.694.694 0 0 1 14 5.308V3.691c0-.382.31-.691.691-.691h1.615c.384 0 .694.309.694.691v1.616c0 .381-.31.693-.693.693z"/>
</symbol></svg>